<svg width="193" height="193" viewBox="0 0 193 193" fill="none" xmlns="http://www.w3.org/2000/svg">
<rect width="192.426" height="192.426" rx="37.107" fill="white"/>
<path d="M75.8434 157.241C87.053 157.241 96.1507 148.128 96.1507 136.898V116.556H75.8434C64.6338 116.556 55.5361 125.669 55.5361 136.898C55.5361 148.128 64.6338 157.241 75.8434 157.241Z" fill="#0ACF83"/>
<path d="M55.5357 96.2133C55.5357 84.9842 64.6334 75.8707 75.843 75.8707H96.1504V116.556H75.843C64.6334 116.556 55.5357 107.442 55.5357 96.2133Z" fill="#A259FF"/>
<path d="M55.5361 55.528C55.5361 44.2989 64.6338 35.1855 75.8435 35.1855L96.1508 35.1855V75.8706H75.8435C64.6338 75.8706 55.5361 66.7572 55.5361 55.528Z" fill="#F24E1E"/>
<path d="M96.1534 35.1855H116.461C127.67 35.1855 136.768 44.2989 136.768 55.528C136.768 66.7572 127.67 75.8706 116.461 75.8706H96.1534V35.1855Z" fill="#FF7262"/>
<path d="M136.769 96.2132C136.769 107.442 127.671 116.556 116.461 116.556C105.252 116.556 96.1539 107.442 96.1539 96.2132C96.1539 84.9841 105.252 75.8706 116.461 75.8706C127.671 75.8706 136.769 84.9841 136.769 96.2132Z" fill="#1ABCFE"/>
</svg>
