<svg width="178" height="36" viewBox="0 0 178 36" fill="none" xmlns="http://www.w3.org/2000/svg">
<path d="M99.2614 19.7727V34.9091H92V8.72727H98.9205V13.3466H99.2273C99.8068 11.8239 100.778 10.6193 102.142 9.73295C103.506 8.83523 105.159 8.38636 107.102 8.38636C108.92 8.38636 110.506 8.78409 111.858 9.57955C113.21 10.375 114.261 11.5114 115.011 12.9886C115.761 14.4545 116.136 16.2045 116.136 18.2386V34.9091H108.875V19.5341C108.886 17.9318 108.477 16.6818 107.648 15.7841C106.818 14.875 105.676 14.4205 104.222 14.4205C103.244 14.4205 102.381 14.6307 101.631 15.0511C100.892 15.4716 100.312 16.0852 99.892 16.892C99.483 17.6875 99.2727 18.6477 99.2614 19.7727Z" fill="#E06336"/>
<path d="M50.1562 10.375H56.1023V35.3931H50.1562V32.148C49.1931 33.3311 47.9544 34.2752 46.5419 34.9025C45.0535 35.5756 43.4296 35.9193 41.7877 35.9089C40.2104 35.9076 38.6485 35.6085 37.1888 35.0283C35.6745 34.4526 34.2889 33.5985 33.1082 32.5126C31.8708 31.3507 30.8844 29.961 30.2064 28.4247C29.4447 26.6883 29.0694 24.8151 29.1053 22.9281C29.065 21.0309 29.4312 19.1462 30.1805 17.3936C30.8484 15.8613 31.8213 14.4721 33.0434 13.3057C34.2224 12.2115 35.614 11.3564 37.137 10.79C38.6474 10.213 40.2553 9.91447 41.8783 9.90963C43.4973 9.89403 45.1008 10.2157 46.5808 10.853C47.951 11.4221 49.1726 12.2816 50.1562 13.3686V10.375Z" fill="#E06336"/>
<path d="M142.156 10.375H148.102V35.3931H142.156V32.148C141.193 33.3311 139.954 34.2752 138.542 34.9025C137.053 35.5756 135.43 35.9193 133.788 35.9089C132.21 35.9076 130.649 35.6085 129.189 35.0283C127.675 34.4526 126.289 33.5985 125.108 32.5126C123.871 31.3507 122.884 29.961 122.206 28.4247C121.445 26.6883 121.069 24.8151 121.105 22.9281C121.065 21.0309 121.431 19.1462 122.181 17.3936C122.848 15.8613 123.821 14.4721 125.043 13.3057C126.222 12.2115 127.614 11.3564 129.137 10.79C130.647 10.213 132.255 9.91447 133.878 9.90963C135.497 9.89403 137.101 10.2157 138.581 10.853C139.951 11.4221 141.173 12.2816 142.156 13.3686V10.375Z" fill="#E06336"/>
<path d="M160.261 19.7727V34.9091H153V0H160.057V13.3466H160.364C160.955 11.8011 161.909 10.5909 163.227 9.71591C164.545 8.82955 166.199 8.38636 168.188 8.38636C170.006 8.38636 171.591 8.78409 172.943 9.57955C174.307 10.3636 175.364 11.4943 176.114 12.9716C176.875 14.4375 177.25 16.1932 177.239 18.2386V34.9091H169.977V19.5341C169.989 17.9205 169.58 16.6648 168.75 15.767C167.932 14.8693 166.784 14.4205 165.307 14.4205C164.318 14.4205 163.443 14.6307 162.682 15.0511C161.932 15.4716 161.341 16.0852 160.909 16.892C160.489 17.6875 160.273 18.6477 160.261 19.7727Z" fill="#E06336"/>
<path d="M177.102 34.9091H153.102L159.102 15.9091L162.102 13.9091L168.102 11.9091L175.102 14.9091L177.102 34.9091Z" fill="#E06336"/>
<path d="M69.2614 19.7727V34.9091H62V8.72727H68.9205V13.3466H69.2273C69.8068 11.8239 70.7784 10.6193 72.142 9.73295C73.5057 8.83523 75.1591 8.38636 77.1023 8.38636C78.9205 8.38636 80.5057 8.78409 81.858 9.57955C83.2102 10.375 84.2614 11.5114 85.0114 12.9886C85.7614 14.4545 86.1364 16.2045 86.1364 18.2386V34.9091H78.875V19.5341C78.8864 17.9318 78.4773 16.6818 77.6477 15.7841C76.8182 14.875 75.6761 14.4205 74.2216 14.4205C73.2443 14.4205 72.3807 14.6307 71.6307 15.0511C70.892 15.4716 70.3125 16.0852 69.892 16.892C69.483 17.6875 69.2727 18.6477 69.2614 19.7727Z" fill="#E06336"/>
<path d="M86.1023 34.9091H62.2648L68.6023 15.4091L74.6023 12.9091L82.1023 14.4091L86.1023 34.9091Z" fill="#E06336"/>
<path d="M7.26136 19.7727V34.9091H0V0H7.05682V13.3466H7.36364C7.95455 11.8011 8.90909 10.5909 10.2273 9.71591C11.5455 8.82955 13.1989 8.38636 15.1875 8.38636C17.0057 8.38636 18.5909 8.78409 19.9432 9.57955C21.3068 10.3636 22.3636 11.4943 23.1136 12.9716C23.875 14.4375 24.25 16.1932 24.2386 18.2386V34.9091H16.9773V19.5341C16.9886 17.9205 16.5795 16.6648 15.75 15.767C14.9318 14.8693 13.7841 14.4205 12.3068 14.4205C11.3182 14.4205 10.4432 14.6307 9.68182 15.0511C8.93182 15.4716 8.34091 16.0852 7.90909 16.892C7.48864 17.6875 7.27273 18.6477 7.26136 19.7727Z" fill="#E06336"/>
<path d="M24.1023 34.9091H0.264795L6.60229 15.4091L12.6023 12.9091L20.1023 14.4091L24.1023 34.9091Z" fill="#E06336"/>
<path d="M116.102 34.9091H92.2648L98.6023 15.4091L104.602 12.9091L112.102 14.4091L116.102 34.9091Z" fill="#E06336"/>
</svg>
