<svg width="64" height="64" viewBox="0 0 64 64" fill="none" xmlns="http://www.w3.org/2000/svg">
<path d="M50.744 30.0392C50.2509 30.0823 49.7216 29.9705 49.2187 29.9016C48.2014 29.7658 47.1947 29.5595 46.206 29.2843C45.133 28.997 43.9918 29.1166 43.0017 29.6202C42.0117 30.1238 41.2429 30.9757 40.8433 32.0121L40.4404 33.0863C38.1555 32.0422 36.0127 30.7117 34.0635 29.127C32.1644 27.4826 30.4821 25.6034 29.0571 23.5346L30.047 22.9737C30.9982 22.4001 31.7036 21.4951 32.0277 20.4327C32.3517 19.3702 32.2713 18.2255 31.8021 17.2188C31.3616 16.2839 30.9831 15.3211 30.669 14.3366C30.5138 13.8533 30.3791 13.3456 30.2687 12.8583C29.8584 11.3033 28.9063 9.94591 27.584 9.03055C26.2617 8.11518 24.656 7.70202 23.0561 7.86546L16.3094 8.45572C15.3617 8.53738 14.4419 8.81842 13.6105 9.2804C12.779 9.74238 12.0546 10.3749 11.4846 11.1364C10.9033 11.9183 10.4981 12.8167 10.2969 13.77C10.0957 14.7234 10.1032 15.7089 10.319 16.659C12.3536 25.8816 17.3742 34.1753 24.6023 40.2539C31.8438 46.3167 40.8833 49.8208 50.319 50.223C50.6119 50.2198 50.9042 50.1942 51.1932 50.1465C52.8463 50.0044 54.3891 49.2583 55.527 48.0508C56.1781 47.3573 56.6751 46.5341 56.9857 45.635C57.2963 44.7359 57.4134 43.7814 57.3292 42.8339L56.7409 36.1096C56.5933 34.5619 55.916 33.1126 54.8234 32.0066C53.7307 30.9006 52.2898 30.2056 50.744 30.0392ZM36.4607 6.44426C35.9452 6.48936 35.4073 6.53643 34.8917 6.58153C34.3017 6.68407 33.7765 7.0168 33.4318 7.50653C33.0871 7.99627 32.951 8.60288 33.0536 9.19292C33.1561 9.78297 33.4888 10.3081 33.9786 10.6528C34.4683 10.9976 35.0749 11.1336 35.665 11.0311L36.8529 10.9271C40.4197 10.6151 43.9644 11.7327 46.7072 14.0342C49.4499 16.3356 51.1661 19.6324 51.4782 23.1992C51.5135 23.6026 51.5468 23.9837 51.5821 24.3871C51.5841 24.9828 51.8223 25.5533 52.2444 25.9737C52.6664 26.394 53.2379 26.6298 53.8336 26.6294L54.0129 26.6137C54.5742 26.5669 55.0976 26.3113 55.4795 25.8973C55.8615 25.4834 56.0743 24.9412 56.0759 24.3779C56.0308 23.8624 55.9837 23.3245 55.9386 22.8089C55.5229 18.0571 53.238 13.6645 49.5859 10.5962C45.9338 7.52777 41.2131 6.03447 36.4607 6.44426ZM42.5124 23.9836C42.5644 24.578 42.8504 25.1275 43.3076 25.5111C43.7647 25.8946 44.3555 26.0809 44.9499 26.0289C45.5444 25.9769 46.0939 25.6909 46.4774 25.2337C46.861 24.7766 47.0473 24.1858 46.9953 23.5914C46.7873 21.2135 45.6431 19.0157 43.8146 17.4814C41.9861 15.9471 39.623 15.202 37.2451 15.41C36.6507 15.462 36.1012 15.7481 35.7176 16.2052C35.3341 16.6623 35.1478 17.2531 35.1998 17.8476C35.2518 18.442 35.5378 18.9915 35.995 19.3751C36.4521 19.7586 37.0429 19.9449 37.6373 19.8929C38.8263 19.7889 40.0078 20.1614 40.9221 20.9286C41.8363 21.6957 42.4084 22.7946 42.5124 23.9836Z" fill="#E06336"/>
</svg>
